<svg width="512" height="512" viewBox="0 0 512 512" fill="none" xmlns="http://www.w3.org/2000/svg">
<rect width="512" height="512" fill="white"/>
<path d="M341.545 271.577L341.545 146.083L393.219 146.083L393.219 271.577L341.545 271.577Z" fill="#212121"/>
<path d="M244.426 364.495V267.016L162.389 289.515V364.495H105.32V145.823H162.389V237.737L244.426 214.964V145.823H301.495V364.495H244.426Z" fill="#212121"/>
<path d="M366.842 294.88C372.452 294.88 377.15 298.739 378.388 303.924C380.104 302.969 382.082 302.421 384.19 302.421C390.745 302.421 396.058 307.688 396.059 314.184C396.059 316.069 395.607 317.85 394.812 319.429C398.951 321.266 401.836 325.381 401.836 330.167C401.836 334.78 399.156 338.771 395.256 340.699C395.772 342.017 396.059 343.45 396.059 344.95C396.058 351.446 390.744 356.712 384.19 356.712C382.107 356.712 380.15 356.178 378.448 355.244C377.309 360.561 372.546 364.55 366.842 364.55C361.189 364.55 356.462 360.632 355.269 355.386C353.631 356.231 351.771 356.712 349.798 356.712C343.244 356.712 337.93 351.446 337.93 344.95C337.93 343.451 338.216 342.017 338.731 340.699C334.832 338.771 332.151 334.78 332.151 330.167C332.151 325.382 335.037 321.266 339.176 319.429C338.38 317.85 337.93 316.069 337.93 314.184C337.93 307.688 343.244 302.422 349.798 302.421C351.796 302.421 353.678 302.913 355.33 303.778C356.621 298.666 361.285 294.881 366.842 294.88Z" fill="#212121"/>
</svg>
